<svg width="485" height="559" viewBox="0 0 485 559" fill="none" xmlns="http://www.w3.org/2000/svg">
<path fill-rule="evenodd" clip-rule="evenodd" d="M300.876 105.383C306.757 99.0843 310.737 91.3649 310.072 82.715C308.156 57.7924 270.134 63.275 262.738 75.8538C255.342 88.4326 256.221 120.34 265.78 122.588C269.592 123.485 277.712 121.288 285.977 116.743L280.789 150.231H311.421L300.876 105.383Z" fill="#F9BE66"/>
<path fill-rule="evenodd" clip-rule="evenodd" d="M276.247 77.6782C280.404 79.7998 283.363 83.7754 286.924 88.9902C287.791 88.6791 288.735 88.5083 289.724 88.5083C293.953 88.5083 297.382 91.6367 297.382 95.4958C297.382 97.4549 296.498 99.2257 295.075 100.494C296.847 102.777 298.832 105.161 301.108 107.621C309.6 102.972 315.916 89.423 307.808 76.3434C300.832 50.1439 261.302 66.4056 253.697 61.987C252.035 71.4943 257.397 79.1603 276.247 77.6782Z" fill="black"/>
<path fill-rule="evenodd" clip-rule="evenodd" d="M313.974 246.892L251.33 391.564L209.315 513.873H192.724L256.956 246.892L313.974 246.892Z" fill="#F9BE66"/>
<path fill-rule="evenodd" clip-rule="evenodd" d="M326.588 246.892C327.255 297.731 336.983 366.177 338.538 369.346C339.574 371.459 375.344 398.325 445.848 449.946L434.421 461.104C351.233 416.846 307.714 391.765 303.864 385.862C298.09 377.008 279.291 295.528 264.197 246.892H326.588Z" fill="#F9BE66"/>
<path fill-rule="evenodd" clip-rule="evenodd" d="M447.53 446.172C451.339 447.379 453.961 448.531 455.394 449.627C457.137 450.961 459.434 453.176 462.283 456.272C460.559 458.145 445.061 474.978 415.791 506.771C409.898 504.5 408.067 501.808 410.296 498.694C412.526 495.581 414.351 492.975 415.771 490.874L426.082 458.76C426.281 458.142 426.987 457.78 427.66 457.952C427.672 457.955 427.683 457.958 427.695 457.961L433.035 459.476C436.764 457.867 439.381 456.244 440.888 454.608C442.112 453.279 443.222 450.999 444.22 447.769C444.602 446.53 446.007 445.793 447.357 446.123C447.415 446.138 447.473 446.154 447.53 446.172Z" fill="black"/>
<path fill-rule="evenodd" clip-rule="evenodd" d="M216.108 508.226C217.536 511.704 218.25 514.307 218.25 516.033C218.25 518.134 217.867 521.198 217.1 525.227C214.43 525.227 190.434 525.227 145.113 525.227C143.243 519.584 144.322 516.538 148.353 516.088C152.383 515.638 155.731 515.231 158.397 514.869L191.856 501.259C192.5 500.997 193.254 501.261 193.541 501.848C193.546 501.858 193.551 501.868 193.555 501.878L195.706 506.639C199.437 508.227 202.469 509.021 204.802 509.021C206.697 509.021 209.315 508.323 212.654 506.926C213.936 506.39 215.451 506.904 216.038 508.073C216.064 508.123 216.087 508.174 216.108 508.226Z" fill="black"/>
<path fill-rule="evenodd" clip-rule="evenodd" d="M271.855 501.275L192.973 493.463L251.434 246.892H322.086L271.855 501.275Z" fill="#69A1AC"/>
<path fill-rule="evenodd" clip-rule="evenodd" d="M429.531 431.945L377.789 487.828C323.291 433.516 291.518 398.078 282.471 381.513C273.424 364.948 265.291 320.074 258.072 246.892H337.613C341.557 311.274 344.215 344.964 345.587 347.96C346.96 350.956 374.941 378.951 429.531 431.945Z" fill="#89C5CC"/>
<path fill-rule="evenodd" clip-rule="evenodd" d="M202.305 232.288L166.15 264.471C155.63 268.566 147.01 273.087 140.291 278.035C138.78 279.698 137.135 282.884 144.244 281.459C151.354 280.033 158.902 278.824 160.238 280.934C161.574 283.044 157.637 286.276 160.107 289.037C161.753 290.878 167.29 285.023 176.717 271.473L214.313 251.248L202.305 232.288ZM379.104 203.161L351.156 203.257C372.442 266.184 383.742 299.131 385.054 302.099C388.008 308.778 381.758 318.949 379.085 324.415C387.79 327.969 386.863 314.807 397.843 319.468C407.866 323.723 415.49 331.432 427.069 324.912C428.493 324.111 430.053 321.093 426.284 318.734C416.893 312.859 403.36 302.576 401.532 299.191C399.038 294.575 391.562 262.565 379.104 203.161Z" fill="#F9BE66"/>
<path fill-rule="evenodd" clip-rule="evenodd" d="M293.942 130.82L282.905 129.093C265.52 185.17 176.192 223.394 170.708 244.357C168.697 252.044 174.761 255.931 171.629 258.272L185.974 267.854C188.403 265.268 193.587 269.999 204.413 266.69C215.239 263.38 293.942 197.22 293.942 130.82Z" fill="#E11010"/>
<path fill-rule="evenodd" clip-rule="evenodd" d="M275.377 138.275C276.649 212.517 229.615 231.455 240.091 261.237C248.743 285.831 331.552 312.27 345.882 288.162C351.682 278.403 354.314 266.601 354.612 253.769C358.275 263.627 361.171 272.114 363.302 279.229C366.978 291.504 381.228 293.455 381.228 298.184L400.002 293.455C398.728 287.031 407.579 283.903 405.206 269.551C394.573 205.246 366.005 158.633 319.501 129.712L319.02 123.434C318.823 120.868 316.384 118.933 313.571 119.112L279.194 121.306C276.382 121.485 274.261 123.711 274.458 126.278L275.377 138.275Z" fill="#E11010"/>
</svg>
