<svg width="406" height="464" viewBox="0 0 406 464" fill="none" xmlns="http://www.w3.org/2000/svg">
<path fill-rule="evenodd" clip-rule="evenodd" d="M251.867 87.4738C256.79 82.2453 260.122 75.8378 259.566 68.6579C257.961 47.9708 226.133 52.5217 219.942 62.9628C213.75 73.4039 214.486 99.8886 222.488 101.755C225.679 102.499 232.477 100.676 239.395 96.9028L235.053 124.7H260.695L251.867 87.4738Z" fill="#F9BE66"/>
<path fill-rule="evenodd" clip-rule="evenodd" d="M231.25 64.4771C234.73 66.2381 237.207 69.5381 240.188 73.8666C240.914 73.6085 241.704 73.4667 242.532 73.4667C246.072 73.4667 248.942 76.0634 248.942 79.2667C248.942 80.8928 248.202 82.3626 247.011 83.4158C248.494 85.3101 250.157 87.2889 252.061 89.3308C259.17 85.4721 264.457 74.2259 257.67 63.3691C251.83 41.6222 218.74 55.1203 212.373 51.4526C210.982 59.3441 215.47 65.7073 231.25 64.4771Z" fill="black"/>
<path fill-rule="evenodd" clip-rule="evenodd" d="M262.832 204.933L210.392 325.019L175.22 426.542H161.332L215.101 204.933L262.832 204.933Z" fill="#F9BE66"/>
<path fill-rule="evenodd" clip-rule="evenodd" d="M273.391 204.933C273.95 247.132 282.093 303.947 283.394 306.577C284.262 308.331 314.205 330.631 373.225 373.479L363.659 382.741C294.021 346.004 257.591 325.186 254.369 320.286C249.535 312.937 233.798 245.304 221.163 204.933H273.391Z" fill="#F9BE66"/>
<path fill-rule="evenodd" clip-rule="evenodd" d="M374.645 370.343C377.831 371.342 380.024 372.297 381.223 373.206C382.681 374.312 384.601 376.148 386.983 378.717C385.539 380.272 372.56 394.249 348.047 420.647C343.118 418.765 341.587 416.532 343.455 413.948C345.322 411.363 346.851 409.199 348.041 407.455L356.69 380.8C356.857 380.288 357.448 379.987 358.011 380.129C358.021 380.132 358.03 380.134 358.04 380.137L362.508 381.391C365.628 380.054 367.82 378.706 369.081 377.347C370.106 376.243 371.037 374.351 371.874 371.67C372.195 370.641 373.371 370.029 374.5 370.303C374.549 370.314 374.597 370.328 374.645 370.343Z" fill="black"/>
<path fill-rule="evenodd" clip-rule="evenodd" d="M180.907 421.855C182.102 424.742 182.7 426.902 182.7 428.335C182.7 430.079 182.379 432.622 181.737 435.967C179.502 435.967 159.415 435.967 121.476 435.967C119.91 431.283 120.814 428.754 124.188 428.38C127.562 428.007 130.365 427.67 132.596 427.369L160.605 416.072C161.144 415.854 161.776 416.073 162.016 416.561C162.02 416.569 162.024 416.578 162.028 416.586L163.828 420.537C166.952 421.856 169.49 422.515 171.442 422.515C173.029 422.515 175.22 421.935 178.015 420.776C179.088 420.331 180.357 420.757 180.848 421.728C180.87 421.77 180.889 421.812 180.907 421.855Z" fill="black"/>
<path fill-rule="evenodd" clip-rule="evenodd" d="M227.574 416.085L161.54 409.601L210.479 204.933H269.622L227.574 416.085Z" fill="#69A1AC"/>
<path fill-rule="evenodd" clip-rule="evenodd" d="M359.566 358.537L316.253 404.923C270.631 359.842 244.034 330.426 236.46 316.676C228.887 302.926 222.079 265.679 216.036 204.933H282.621C285.922 258.374 288.147 286.338 289.296 288.825C290.445 291.312 313.869 314.549 359.566 358.537Z" fill="#89C5CC"/>
<path fill-rule="evenodd" clip-rule="evenodd" d="M169.352 192.812L139.086 219.526C130.28 222.924 123.064 226.677 117.439 230.784C116.174 232.164 114.797 234.809 120.749 233.626C126.7 232.442 133.019 231.439 134.137 233.19C135.256 234.941 131.96 237.625 134.027 239.917C135.405 241.444 140.04 236.585 147.932 225.337L179.405 208.549L169.352 192.812ZM317.353 168.635L293.958 168.714C311.777 220.947 321.235 248.295 322.334 250.759C324.806 256.302 319.575 264.745 317.337 269.282C324.624 272.232 323.848 261.306 333.04 265.176C341.43 268.707 347.812 275.106 357.505 269.695C358.697 269.029 360.003 266.524 356.848 264.567C348.987 259.69 337.658 251.154 336.127 248.345C334.04 244.513 327.782 217.943 317.353 168.635Z" fill="#F9BE66"/>
<path fill-rule="evenodd" clip-rule="evenodd" d="M246.063 108.588L236.824 107.154C222.27 153.701 147.493 185.429 142.902 202.829C141.219 209.21 146.295 212.436 143.673 214.38L155.681 222.333C157.715 220.187 162.054 224.113 171.117 221.367C180.179 218.62 246.063 163.703 246.063 108.588Z" fill="#251780"/>
<path fill-rule="evenodd" clip-rule="evenodd" d="M230.522 114.776C231.587 176.4 192.213 192.12 200.984 216.841C208.226 237.255 277.547 259.201 289.542 239.19C294.398 231.09 296.601 221.293 296.851 210.642C299.917 218.825 302.341 225.869 304.125 231.775C307.202 241.964 319.131 243.583 319.131 247.508L334.847 243.583C333.781 238.251 341.19 235.655 339.203 223.742C330.302 170.365 306.387 131.674 267.458 107.668L267.056 102.457C266.891 100.327 264.849 98.7208 262.494 98.8697L233.717 100.69C231.363 100.839 229.587 102.687 229.752 104.817L230.522 114.776Z" fill="#251780"/>
</svg>
